<svg xmlns="http://www.w3.org/2000/svg" width="560" height="420" viewBox="0 0 560 420">
  <g stroke="#25252a" stroke-linecap="round" stroke-linejoin="round">
    <path d="M34 344c139-52 322-50 492 0v76H34z" fill="#a7dc79" stroke="none"/>
    <ellipse cx="294" cy="221" rx="111" ry="86" fill="#f2c19b" stroke-width="10"/>
    <ellipse cx="185" cy="230" rx="24" ry="31" fill="#f2c19b" stroke-width="8"/><ellipse cx="403" cy="230" rx="24" ry="31" fill="#f2c19b" stroke-width="8"/>
    <path d="M197 169c17-59 66-88 116-81 52 7 94 35 107 83-26-15-48-18-70-11-20-21-45-27-70-20-25-6-52 5-83 29z" fill="#1b1b1f" stroke="none"/>
    <path d="M218 177c16-12 32-14 47-6M306 170c17-9 34-7 48 4" fill="none" stroke="#1b1b1f" stroke-width="12"/>
    <ellipse cx="252" cy="220" rx="19" ry="25" fill="#17181b" stroke="none"/><ellipse cx="326" cy="220" rx="19" ry="25" fill="#17181b" stroke="none"/><circle cx="247" cy="212" r="5" fill="#fff" stroke="none"/><circle cx="321" cy="212" r="5" fill="#fff" stroke="none"/>
    <ellipse cx="306" cy="279" rx="33" ry="27" fill="#ed7076" stroke-width="7"/>
    <path d="M193 346c49-42 102-53 161-30 30 12 56 29 77 53" fill="#e8464f" stroke-width="10"/>
    <path d="M191 344q41-52 86-4M335 338q39-46 83-6" fill="#f2c19b" stroke-width="9"/>
  </g>
  <g transform="translate(38 62)"><path d="M0 35q0-35 35-35h102q35 0 35 35v50q0 35-35 35H79l-28 28 5-28H35Q0 120 0 85z" fill="#ffe36d"/><text x="31" y="76" font-family="Arial,'Microsoft YaHei',sans-serif" font-size="42" font-weight="900" fill="#222329">你好！</text></g>
</svg>